<?xml version="1.0" encoding="UTF-8" standalone="no"?>
<!DOCTYPE svg PUBLIC "-//W3C//DTD SVG 1.1//EN" "http://www.w3.org/Graphics/SVG/1.1/DTD/svg11.dtd">
<svg width="100%" height="100%" viewBox="0 0 652 173" version="1.1" xmlns="http://www.w3.org/2000/svg" xmlns:xlink="http://www.w3.org/1999/xlink" xml:space="preserve" xmlns:serif="http://www.serif.com/" style="fill-rule:evenodd;clip-rule:evenodd;stroke-linejoin:round;stroke-miterlimit:2;">
    <g transform="matrix(1,0,0,1,-1276,-69)">
        <g id="logo-letras" serif:id="logo letras" transform="matrix(1.01242,0,0,0.812207,-15.8509,12.9577)">
            <rect x="1276" y="69" width="644" height="213" style="fill:none;"/>
            <g transform="matrix(0.98773,0,0,1.23121,6.76687,-40.8337)">
                <g transform="matrix(3.18442,0,0,3.18442,-507.83,-2084.56)">
                    <path d="M702.382,715.185C704.419,716.169 706.64,716.75 710.506,715.75C713.141,715.068 714.558,717.745 714.558,720.043L714.558,726.028C714.558,728.326 713.228,730.321 710.506,730.321C708.833,730.321 707.686,729.567 707.05,728.467C706.791,728.019 706.7,726.072 707.047,724.876C707.671,722.724 708.857,719.624 710.604,719.135C710.604,719.135 707.548,718.095 704.626,720.838C704.626,720.838 703.769,721.588 701.626,720.877C699.648,720.22 698.785,722.283 698.696,725.077L698.753,727.077C698.825,727.9 698.986,728.659 699.225,729.357C700.778,733.893 705.621,735.823 710.506,735.823C716.433,735.823 722.3,732.981 722.3,726.089L722.24,718.773C722.023,716.829 721.297,715.248 720.223,714C720.223,714 718.784,712.728 716.95,712.373C714.771,711.952 712.051,713.323 710.49,713.073C706.832,712.487 706.438,710.078 706.438,707.78L706.438,701.795C706.438,699.497 707.769,697.502 710.49,697.502C712.163,697.502 713.31,698.256 713.946,699.356C714.206,699.804 714.297,701.751 713.949,702.947C713.325,705.099 712.139,708.199 710.392,708.688C710.392,708.688 713.448,709.728 716.37,706.985C716.37,706.985 717.227,706.235 719.37,706.946C721.348,707.603 722.211,705.54 722.3,702.745L722.243,700.746C722.171,699.923 722.01,699.164 721.772,698.466C720.219,693.93 715.375,692 710.49,692C706.235,692 702.384,693.721 699.966,696.842C698.163,699.168 698.3,704.228 698.408,707.016C698.52,709.909 700.176,714.119 702.382,715.185Z" style="fill:rgb(232,106,51);fill-rule:nonzero;"/>
                </g>
                <g transform="matrix(3.18442,0,0,3.18442,-695.711,-2024.06)">
                    <path d="M742.158,678.793C744.94,678.793 746.271,680.788 746.271,683.086L746.271,707.028C746.271,709.326 744.94,711.321 742.158,711.321C739.497,711.321 738.166,709.326 738.166,707.028L738.166,683.086C738.166,680.788 739.497,678.793 742.158,678.793ZM742.158,673.291C736.231,673.291 730.424,676.133 730.424,683.025L730.424,707.089C730.424,713.981 736.231,716.823 742.158,716.823C748.086,716.823 754.013,713.981 754.013,707.089L754.013,683.025C754.013,676.133 748.086,673.291 742.158,673.291Z" style="fill:rgb(65,100,74);fill-rule:nonzero;"/>
                </g>
                <g transform="matrix(3.18442,0,0,3.18442,-507.83,-2084.56)">
                    <path d="M656.255,709.584C659.589,707.962 660.201,702.862 660.201,702.025C660.201,699.788 658.75,697.793 656.088,697.793L654.758,697.793C652.096,697.793 650.766,699.788 650.766,702.085L650.766,726.028C650.766,728.325 652.096,730.321 654.758,730.321L656.088,730.321C658.75,730.321 660.201,728.325 660.201,726.088C660.201,723.083 658.589,717.548 656.255,716.927C656.255,716.927 659.298,715.848 662.255,718.552C662.255,718.552 663.121,719.291 665.255,718.552C667.243,717.863 668.131,720.961 668.243,723.796C668.243,723.796 668.461,727.557 666.704,730.844C664.81,734.391 660.41,735.822 656.088,735.822L654.758,735.822C648.83,735.822 643.024,732.981 643.024,726.088L643.024,702.025C643.024,695.132 648.83,692.291 654.758,692.291L656.088,692.291C660.922,692.291 665.42,694.318 667.375,698.615C668.741,701.619 668.243,703.714 668.243,703.714C668.131,706.549 667.243,708.648 665.255,707.959C663.121,707.219 662.255,707.959 662.255,707.959C659.298,710.663 656.255,709.584 656.255,709.584Z" style="fill:rgb(65,100,74);"/>
                </g>
                <g transform="matrix(1,0,0,1,1115,-341.031)">
                    <path d="M240.872,459.856C241.029,459.834 246.708,458.036 254.012,461.015C256.355,461.493 288.753,461.015 288.753,461.015C307.628,461.015 326.118,470.064 326.118,492.013L326.118,522.433C326.118,533.022 321.496,540.724 314.947,545.73L322.616,578.642C322.616,578.642 324.793,596.107 336.946,599.341C336.946,599.341 327.256,602.777 317.839,594.166C317.839,594.166 315.08,591.812 308.286,594.166C301.974,596.354 297.164,589.723 295.59,580.741C295.085,577.853 292.22,553.238 292.22,553.238L279.123,553.238L280.238,579.087C280.238,589.103 277.479,596.966 270.685,594.611C263.891,592.257 261.132,594.611 261.132,594.611C251.715,603.222 242.025,599.786 242.025,599.786C254.178,596.551 254.469,574.206 254.469,570.759L254.469,556.328C253.674,546.859 251.131,527.771 243.552,527.771C243.552,527.771 248.038,521.383 254.469,527.446L254.469,489.895C254.469,485.497 253.306,478.545 253.306,478.545C251.75,470.964 248.303,461.836 240.872,459.856ZM279.123,468.983L288.753,468.983C297.228,468.983 301.465,475.336 301.465,482.652L301.465,522.241C301.465,529.557 297.228,535.718 288.753,535.718L279.123,535.718L279.123,468.983ZM240.872,459.856L240.869,459.855C240.868,459.856 240.869,459.856 240.872,459.856Z" style="fill:rgb(65,100,74);"/>
                </g>
                <g transform="matrix(1,0,0,1,1115,-341.031)">
                    <path d="M210.762,500.247L210.491,442.855C204.973,442.282 180.856,437.535 170.677,452.529C170.677,452.529 167.241,439.655 175.852,430.238C195.587,433.551 258.199,431.309 271.513,430.238C280.123,439.655 276.687,452.529 276.687,452.529C265.155,435.542 235.735,442.99 235.735,442.99L235.702,500.84C241.392,496.802 245.25,502.296 245.25,502.296C240.04,502.296 237.209,511.318 235.691,520.035L235.657,579.087C235.657,589.103 232.897,596.966 226.103,594.611C219.309,592.257 216.55,594.611 216.55,594.611C207.133,603.222 197.443,599.786 197.443,599.786C209.596,596.551 211.095,574.206 211.095,570.759L210.835,515.669C209.179,508.545 206.492,502.296 202.155,502.296C202.155,502.296 205.592,497.401 210.762,500.247Z" style="fill:rgb(65,100,74);"/>
                </g>
                <g transform="matrix(1,0,0,1,1115,-341.031)">
                    <path d="M783.486,526.398L783.676,454.452C782.533,446.494 779.29,434.417 770.603,432.105C770.603,432.105 780.293,428.669 789.71,437.28C789.71,437.28 792.469,439.634 799.263,437.28C805.535,435.106 808.368,441.639 808.767,450.534L808.893,450.534L808.695,525.524C813.651,523.117 816.919,527.771 816.919,527.771C812.93,527.771 810.336,533.059 808.658,539.449L808.558,577.439C809.701,585.397 812.944,597.474 821.631,599.786C821.631,599.786 811.942,603.222 802.524,594.611C802.524,594.611 799.765,592.257 792.971,594.611C786.699,596.785 783.866,590.252 783.467,581.356L783.341,581.356L783.435,545.809C781.93,537.004 779.095,527.771 773.824,527.771C773.824,527.771 777.734,522.203 783.486,526.398Z" style="fill:rgb(232,106,51);"/>
                </g>
                <g transform="matrix(1,0,0,1,1115,-341.031)">
                    <path d="M688.119,510.599C688.117,504.723 688.115,498.845 688.112,492.977C688.11,487.979 687.913,468.12 675.92,460.093C675.92,460.093 685.609,456.579 695.026,465.386C695.026,465.386 697.786,467.795 704.58,465.386C710.636,463.239 713.486,469.398 714.033,478.018L713.475,526.148L743.907,526.148L742.793,478.018C743.34,469.398 746.19,463.239 752.246,465.386C759.04,467.795 761.8,465.386 761.8,465.386C771.217,456.579 780.906,460.093 780.906,460.093C767.481,465.272 768.721,490.498 768.721,490.498L768.721,548.933C774.649,544.285 778.706,550.062 778.706,550.062C772.963,550.062 770.111,561.025 768.721,570.456L768.721,573.115C768.721,573.115 768.844,573.654 768.885,574.57C769.367,585.243 770.824,590.529 772.126,593.029C774.139,596.893 776.961,600.027 780.906,601.101C780.906,601.101 771.217,604.616 761.8,595.808C761.8,595.808 759.04,593.4 752.246,595.808C746.19,597.956 743.34,591.797 742.793,583.177L743.907,537.751L713.475,537.751L714.033,583.177C713.486,591.797 710.636,597.956 704.58,595.808C697.786,593.4 695.026,595.808 695.026,595.808C685.609,604.616 675.92,601.101 675.92,601.101C682.976,599.18 688.118,586.939 688.122,574.128C688.128,560.201 688.128,545.813 688.125,531.245C686.683,522.056 683.833,511.849 678.291,511.849C678.291,511.849 682.276,506.175 688.119,510.599Z" style="fill:rgb(232,106,51);"/>
                </g>
                <g transform="matrix(1,0,0,1,1115,-341.031)">
                    <path d="M337.251,525.301L337.251,490.575C337.251,485.709 337.258,479.897 337.258,479.897C335.702,472.142 332.254,462.804 324.82,460.78C324.82,460.78 334.51,457.266 343.927,466.073C343.927,466.073 346.686,468.481 353.48,466.073C359.813,463.828 362.64,470.663 362.994,479.897L361.904,580.692C361.904,588.175 366.142,594.674 374.616,594.674C383.476,594.674 387.713,588.175 387.713,580.692L388.509,479.897C388.863,470.663 391.69,463.828 398.023,466.073C404.817,468.481 407.576,466.073 407.576,466.073C416.994,457.266 426.683,460.78 426.683,460.78C419.249,462.804 415.802,472.142 414.245,479.897C414.245,479.897 412.367,485.709 412.367,490.575L412.367,525.432C417.212,523.241 420.394,527.771 420.394,527.771C416.586,527.771 414.049,532.589 412.367,538.585L412.367,571.118C412.367,593.567 393.492,602.823 374.616,602.823C355.741,602.823 337.251,593.567 337.251,571.118L337.251,537.534C335.572,532.037 333.115,527.771 329.532,527.771C329.532,527.771 332.579,523.432 337.251,525.301Z" style="fill:rgb(65,100,74);"/>
                </g>
                <g transform="matrix(1,0,0,1,1115,-341.031)">
                    <path d="M506.859,527.771C506.859,527.771 511.501,521.161 518.111,527.771L518.111,561.525C518.111,561.525 516.938,527.771 506.859,527.771ZM598.721,527.771C598.721,527.771 594.08,521.161 587.47,527.771L587.47,561.525C587.47,561.525 588.643,527.771 598.721,527.771Z" style="fill:rgb(65,100,74);"/>
                </g>
            </g>
        </g>
    </g>
</svg>
