<?xml version="1.0" encoding="UTF-8" standalone="no"?>
<!DOCTYPE svg PUBLIC "-//W3C//DTD SVG 1.1//EN" "http://www.w3.org/Graphics/SVG/1.1/DTD/svg11.dtd">
<svg viewBox="0 0 390 313" version="1.1" xmlns="http://www.w3.org/2000/svg" xmlns:xlink="http://www.w3.org/1999/xlink" xml:space="preserve" xmlns:serif="http://www.serif.com/" style="fill-rule:evenodd;clip-rule:evenodd;stroke-linejoin:round;stroke-miterlimit:2;">
    <g transform="matrix(1,0,0,1,-712,-21)">
        <g id="Mesa-de-trabajo2" serif:id="Mesa de trabajo2" transform="matrix(1.51751,0,0,0.869444,-368.467,2.74167)">
            <rect x="712" y="21" width="257" height="360" style="fill:none;"/>
            <clipPath id="_clip1">
                <rect x="712" y="21" width="257" height="360"/>
            </clipPath>
            <g clip-path="url(#_clip1)">
                <g transform="matrix(1.27179,0,0,1.42492,-289.54,-11.2236)">
                    <g transform="matrix(0.518145,0,0,0.807175,628.579,-72.7051)">
                        <path d="M335.693,302.542L306.956,166.543C305.684,160.522 309.54,154.601 315.561,153.329L481.182,118.333C487.203,117.061 493.124,120.916 494.397,126.937L543.718,360.356C544.99,366.377 541.135,372.298 535.114,373.571L369.492,408.566C363.471,409.839 357.55,405.983 356.278,399.962L336.243,305.147L353.9,298.614L335.693,302.542ZM384.079,138.931L386.826,151.666L388.324,138.015L384.079,138.931Z" style="fill:rgb(38,58,42);"/>
                    </g>
                    <g transform="matrix(0.518145,0,0,0.807175,628.579,-72.7051)">
                        <path d="M650.867,382.838L631.087,375.894L651.48,379.937L696.57,166.543C697.842,160.522 693.987,154.601 687.966,153.329L620.325,139.036L619.289,148.482L617.104,138.356L522.344,118.333C516.323,117.061 510.402,120.916 509.13,126.937L459.809,360.356C458.537,366.377 462.392,372.298 468.413,373.571L634.034,408.566C640.055,409.839 645.977,405.983 647.249,399.962L650.867,382.838Z" style="fill:rgb(38,58,42);"/>
                    </g>
                    <g transform="matrix(0.609825,0,0,0.786512,769.163,-44.8468)">
                        <path d="M283.707,128.098C283.707,121.236 279.095,115.666 273.414,115.666L117.157,115.666C111.477,115.666 106.865,121.236 106.865,128.098L106.865,394.093C106.865,400.955 111.477,406.525 117.157,406.525L273.414,406.525C279.095,406.525 283.707,400.955 283.707,394.093L283.707,128.098Z" style="fill:white;"/>
                    </g>
                    <g transform="matrix(1.64999,0,0,2.57039,-227.133,-1552.01)">
                        <path d="M666,666L666,641.5L680.625,637L679.5,664L691,661L678,701L683.417,679.875L676.125,700L675.563,675.25L665,679L664,642L666,666Z" style="fill:rgb(232,106,51);"/>
                    </g>
                    <g transform="matrix(0.518145,0,0,0.807175,628.579,-72.7051)">
                        <path d="M605.228,159.332C605.228,152.646 599.8,147.218 593.115,147.218L409.21,147.218C402.524,147.218 397.096,152.646 397.096,159.332L397.096,418.518C397.096,425.204 402.524,430.632 409.21,430.632L593.115,430.632C599.8,430.632 605.228,425.204 605.228,418.518L605.228,159.332ZM597.902,167.406L577.606,170.305L597.868,173.2L596.507,402.768L590.344,402.768L596.483,406.861L596.414,418.518C596.409,419.422 596.008,420.226 595.412,420.816C594.825,421.397 594.005,421.727 593.115,421.722L484.038,421.401L478.889,405.953L478.889,421.385L409.21,421.18C408.474,421.181 407.806,420.887 407.323,420.405C406.838,419.922 406.53,419.256 406.529,418.518L406.153,305.391L415.201,300.867L406.138,300.867L405.809,202.15L424.754,202.15L405.8,199.442L405.667,159.332C405.661,158.347 406.027,157.441 406.669,156.791C407.321,156.132 408.211,155.69 409.21,155.684C409.21,155.684 593.115,154.615 593.115,154.615C594.424,154.607 595.625,155.103 596.49,155.957C597.365,156.821 597.942,158.006 597.95,159.332L597.902,167.406Z" style="fill:rgb(65,100,74);"/>
                    </g>
                </g>
            </g>
        </g>
    </g>
</svg>
